<!-- icon666.com - MILLIONS vector ICONS FREE --><svg id="Filled_Expand" viewBox="0 0 64 64" xmlns="http://www.w3.org/2000/svg" data-name="Filled Expand"><path d="m14 1h40a2 2 0 0 1 2 2v48a0 0 0 0 1 0 0h-42a0 0 0 0 1 0 0v-50a0 0 0 0 1 0 0z" fill="#6de6cb" style="fill: rgb(107, 230, 109);"></path><path d="m14 4h40a2 2 0 0 1 2 2v45a0 0 0 0 1 0 0h-42a0 0 0 0 1 0 0v-47a0 0 0 0 1 0 0z" fill="#0bd6a8" style="fill: rgb(11, 213, 25);"></path><path d="m50 13a6.006 6.006 0 0 1 -6-6h-18a5.984 5.984 0 0 1 -8 5.65v26.7a5.984 5.984 0 0 1 8 5.65h18a5.984 5.984 0 0 1 8-5.65v-26.7a5.976 5.976 0 0 1 -2 .35z" fill="#ff527d" style="fill: rgb(82, 255, 125);"></path><path d="m35 13 3.808 3.808h5.384v5.384l3.808 3.808-3.808 3.808v5.384h-5.384l-3.808 3.808-3.808-3.808h-5.384v-5.384l-3.808-3.808 3.808-3.808v-5.384h5.384z" fill="#f7f7ff" style="fill: rgb(161, 252, 172);"></path><path d="m32.85 31.192h-3.042v-3.041l-2.151-2.151 2.151-2.151v-3.041h3.042l2.15-2.151 2.15 2.151h3.042v3.041l2.151 2.151-2.151 2.151v3.041h-3.042l-2.15 2.151z" fill="#0bd6a8" style="fill: rgb(11, 213, 25);"></path><path d="m14 51v-50h-2a4 4 0 0 0 -4 4v51h48v-5z" fill="#fffa78" style="fill: rgb(44, 163, 0);"></path><path d="m14 51v-47a3 3 0 0 0 -3 3v49h45v-5z" fill="#ffeb5a" style="fill: rgb(0, 209, 24);"></path><path d="m13 51h43v8a2 2 0 0 1 -2 2h-41a5 5 0 0 1 -5-5 5 5 0 0 1 5-5z" fill="#00bc8b" style="fill: rgb(0, 189, 38);"></path><g fill="#eaeaf0"><path d="m14 51h38v6h-38a3 3 0 0 1 -3-3 3 3 0 0 1 3-3z" fill="#eaeaf0"></path><circle cx="50" cy="7" r="2" fill="#eaeaf0"></circle><circle cx="20" cy="7" r="2" fill="#eaeaf0"></circle><circle cx="50" cy="45" r="2" fill="#eaeaf0"></circle><circle cx="20" cy="45" r="2" fill="#eaeaf0"></circle></g><path d="m40 55h6v8l-3-2-3 2z" fill="#ff527d" style="fill: rgb(82, 255, 125);"></path><path d="m52.577 11.833a1 1 0 0 0 -.912-.125 4.984 4.984 0 0 1 -6.665-4.708 1 1 0 0 0 -1-1h-18a1 1 0 0 0 -1 1 4.984 4.984 0 0 1 -6.665 4.708 1 1 0 0 0 -1.335.942v26.7a1 1 0 0 0 1.335.942 4.984 4.984 0 0 1 6.665 4.708 1 1 0 0 0 1 1h18a1 1 0 0 0 1-1 4.984 4.984 0 0 1 6.665-4.708 1 1 0 0 0 1.335-.942v-26.7a1 1 0 0 0 -.423-.817zm-1.577 26.241a6.847 6.847 0 0 0 -1-.074 7.011 7.011 0 0 0 -6.929 6h-16.142a7.011 7.011 0 0 0 -6.929-6 6.847 6.847 0 0 0 -1 .074v-24.148a6.847 6.847 0 0 0 1 .074 7.011 7.011 0 0 0 6.929-6h16.142a7.011 7.011 0 0 0 6.929 6 6.847 6.847 0 0 0 1-.074z" fill="#000000"></path><path d="m45.192 21.778v-4.97a1 1 0 0 0 -1-1h-4.97l-3.515-3.515a1 1 0 0 0 -1.414 0l-3.515 3.515h-4.97a1 1 0 0 0 -1 1v4.97l-3.515 3.515a1 1 0 0 0 0 1.414l3.515 3.515v4.97a1 1 0 0 0 1 1h4.97l3.515 3.515a1 1 0 0 0 1.414 0l3.515-3.515h4.97a1 1 0 0 0 1-1v-4.97l3.515-3.515a1 1 0 0 0 0-1.414zm-1.707 7.322a1 1 0 0 0 -.293.707v4.384h-4.384a1 1 0 0 0 -.707.293l-3.1 3.1-3.1-3.1a1 1 0 0 0 -.707-.293h-4.386v-4.383a1 1 0 0 0 -.293-.707l-3.1-3.1 3.1-3.1a1 1 0 0 0 .293-.707v-4.386h4.384a1 1 0 0 0 .707-.293l3.1-3.1 3.1 3.1a1 1 0 0 0 .707.293h4.384v4.384a1 1 0 0 0 .293.707l3.1 3.1z" fill="#000000"></path><path d="m41.192 23.435v-2.627a1 1 0 0 0 -1-1h-2.628l-1.857-1.858a1 1 0 0 0 -1.414 0l-1.857 1.858h-2.628a1 1 0 0 0 -1 1v2.627l-1.858 1.858a1 1 0 0 0 0 1.414l1.858 1.858v2.627a1 1 0 0 0 1 1h2.628l1.857 1.858a1 1 0 0 0 1.414 0l1.857-1.858h2.628a1 1 0 0 0 1-1v-2.627l1.858-1.858a1 1 0 0 0 0-1.414zm-1.707 4.009a1 1 0 0 0 -.293.707v2.041h-2.041a1 1 0 0 0 -.708.293l-1.443 1.444-1.443-1.444a1 1 0 0 0 -.708-.293h-2.041v-2.041a1 1 0 0 0 -.293-.707l-1.444-1.444 1.444-1.444a1 1 0 0 0 .293-.707v-2.041h2.041a1 1 0 0 0 .708-.293l1.443-1.444 1.443 1.444a1 1 0 0 0 .708.293h2.041v2.041a1 1 0 0 0 .293.707l1.444 1.444z" fill="#000000"></path><path d="m50 4a3 3 0 1 0 3 3 3 3 0 0 0 -3-3zm0 4a1 1 0 1 1 1-1 1 1 0 0 1 -1 1z" fill="#000000"></path><path d="m20 10a3 3 0 1 0 -3-3 3 3 0 0 0 3 3zm0-4a1 1 0 1 1 -1 1 1 1 0 0 1 1-1z" fill="#000000"></path><path d="m50 42a3 3 0 1 0 3 3 3 3 0 0 0 -3-3zm0 4a1 1 0 1 1 1-1 1 1 0 0 1 -1 1z" fill="#000000"></path><path d="m20 42a3 3 0 1 0 3 3 3 3 0 0 0 -3-3zm0 4a1 1 0 1 1 1-1 1 1 0 0 1 -1 1z" fill="#000000"></path><path d="m54 0h-42a5.006 5.006 0 0 0 -5 5v51a6.006 6.006 0 0 0 6 6h26v1a1 1 0 0 0 1.555.832l2.445-1.632 2.445 1.63a1 1 0 0 0 1.555-.83v-1h7a3 3 0 0 0 3-3v-56a3 3 0 0 0 -3-3zm-45 5a3 3 0 0 1 3-3h1v48a5.969 5.969 0 0 0 -4 1.54zm30 55h-26a3.986 3.986 0 0 1 -2.929-6.7 3.957 3.957 0 0 0 3.929 4.7h25zm6 1.13-1.445-.964a1 1 0 0 0 -1.11 0l-1.445.964v-5.13h4zm1-7.13h-6a1 1 0 0 0 -1 1v1h-25a2 2 0 0 1 0-4h37v4h-4v-1a1 1 0 0 0 -1-1zm9 5a1 1 0 0 1 -1 1h-7v-2h5a1 1 0 0 0 1-1v-5h2zm0-9h-40v-48h39a1 1 0 0 1 1 1z" fill="#000000"></path></svg>